<svg id="Capa_1" data-name="Capa 1" xmlns="http://www.w3.org/2000/svg" viewBox="0 0 2837.41 2747"><defs><style>.cls-1{fill:#fff;}</style></defs><path class="cls-1" d="M-879.95-849V1898h2837.4V-849Zm2715.7,2625.3h-2594V-727.3h2594Z" transform="translate(879.95 849)"/><polygon class="cls-1" points="257.14 317.23 219.93 290.42 219.93 290.35 257.14 317.23"/><polygon class="cls-1" points="2619.21 2119.36 2393.19 2119.36 2393.19 1299.85 1430.01 2001.14 445.95 1298.39 445.95 1555.71 1430.01 2265.41 1430.01 2564.45 219.93 1700.29 219.93 290.42 257.14 317.23 1430.01 1163.13 2617.47 290.42 2617.47 598.01 1430.01 1462.17 445.95 759.42 445.95 992.4 1430.01 1702.1 2617.47 829.38 2619.21 2119.36"/></svg>