<?xml version="1.0" encoding="UTF-8"?>
<svg id="Capa_1" xmlns="http://www.w3.org/2000/svg" version="1.1" viewBox="0 0 1080 1080">
  <!-- Generator: Adobe Illustrator 30.2.1, SVG Export Plug-In . SVG Version: 2.1.1 Build 1)  -->
  <rect x="333.07" y="482.3" width="551.25" height="97.29" rx="27.62" ry="27.62" transform="translate(1139.63 -77.75) rotate(90)"/>
  <rect x="370.66" y="255.32" width="263.98" height="97.29" rx="27.62" ry="27.62"/>
  <path d="M396.38,194.67H27.62c-15.25,0-27.62,12.37-27.62,27.62v635.42c0,15.25,12.37,27.62,27.62,27.62h368.76c15.25,0,27.62-12.37,27.62-27.62V222.29c0-15.25-12.37-27.62-27.62-27.62ZM370.66,530.94c0,15.25-12.37,27.62-27.62,27.62h-1.5c-15.25,0-27.62-12.37-27.62-27.62h0c0-15.25,12.37-27.62,27.62-27.62h1.5c15.25,0,27.62,12.37,27.62,27.62h0Z"/>
  <rect x="730.67" y="465.23" width="230.88" height="149.54" rx="27.62" ry="27.62"/>
  <path d="M886.78,467.02v145.97c0,.73.02,1.46.06,2.18,1.46,28.78,33.61,45.34,58.58,30.95l109.82-63.27c33.02-19.02,33.02-66.67,0-85.7l-109.82-63.27c-24.97-14.38-57.12,2.18-58.58,30.95-.04.72-.06,1.45-.06,2.18Z"/>
  <rect x="393.35" y="727.39" width="263.98" height="97.29" rx="27.62" ry="27.62"/>
</svg>