<?xml version="1.0" encoding="UTF-8"?>
<svg id="Capa_1" xmlns="http://www.w3.org/2000/svg" version="1.1" viewBox="0 0 1080 1080">
  <!-- Generator: Adobe Illustrator 30.2.1, SVG Export Plug-In . SVG Version: 2.1.1 Build 1)  -->
  <path d="M600.52,0c65.02,0,118.14,71.81,118.3,128.58l.4,141.74c.07,25.27-21.32,45.19-45.9,44.54-23.75-.62-43.85-19.48-43.88-44.93l-.15-134.92c-.03-25.42-20.37-45.07-45.67-45.02l-205.81.44c43,12.75,71.55,46.37,71.55,91.31l-.04,672.89,136.43-.02c24.3,0,42.09-19.98,43.63-43.15v-180.9c-.01-26.35,20.8-46.08,45.88-45.59,24.16.47,44.1,19.92,44.04,45.58l-.45,183.55c-.18,71.05-60.05,130.11-130.76,130.34l-138.76.46.15,42.07c.11,30.22-13.22,57.7-35.92,74.52-24.1,17.85-54.06,23.44-82.76,13.85l-270.53-90.39C29.53,974.7,0,943.45,0,908.41L.23,80.79C.24,37.88,39.01,9.36,75.39,0h525.14Z"/>
  <path d="M1079.26,440.78v18.67c-4.41,10.75-9.97,19.23-18.88,28.13l-174.79,174.56c-13.34,13.32-32.72,15.92-49.46,8.74-14.66-6.29-26.72-21.82-26.74-40.28l-.11-135.68-177.09.17c-27.57.03-48.67-20.32-47.74-46.65.96-27.13,22.83-43.84,49.93-43.79l174.87.32.19-137.05c.03-18.47,13.61-33.77,27.68-39.39,18-7.18,36.34-3.08,49.85,10.44l184.27,184.33,8.01,17.47Z"/>
</svg>