<?xml version="1.0" encoding="UTF-8"?>
<svg id="Capa_1" data-name="Capa 1" xmlns="http://www.w3.org/2000/svg" viewBox="0 0 1080 1010.22">
  <path d="M590.62,256.91l-251.74,251.68-129.12-129.08L.3,588.4,0,73.61C-.02,31.61,31.48-.29,73.64,0h661.33c40.86-.05,72.2,30.41,73.17,71.31l-.22,402.6-217.3-217.01ZM429.48,270.77c0-59.02-47.85-106.87-106.87-106.87s-106.87,47.85-106.87,106.87,47.85,106.87,106.87,106.87,106.87-47.85,106.87-106.87Z"/>
  <path d="M67.79,807.63c-34.79-.01-63.54-29.17-66.27-60.95-2.24-26.06-.54-49.12-.86-75.6l208.97-208.99,129.26,129.07,251.74-251.73,210.06,209.98.09,192.47c-1.05,35.87-27.29,63.89-63.48,65.96l-669.51-.21Z"/>
  <path d="M918.07,1009.65l-661.71-82.27c-32.06-3.99-55.61-29.7-60.59-60.35l543.81-.69c68.84-.09,126.46-58.12,126.52-126.66l.46-550.74,150.68,18.87c39.14,4.9,65.99,39.04,62.45,78.54l-82.13,660.53c-4.79,38.5-38.75,67.82-79.48,62.76Z"/>
  <circle cx="322.61" cy="270.77" r="48.51"/>
</svg>