<?xml version="1.0" encoding="UTF-8"?>
<svg id="Capa_1" xmlns="http://www.w3.org/2000/svg" version="1.1" viewBox="0 0 351.04 29.79">
  <!-- Generator: Adobe Illustrator 30.2.1, SVG Export Plug-In . SVG Version: 2.1.1 Build 1)  -->
  <defs>
    <style>
      .st0 {
        isolation: isolate;
      }
    </style>
  </defs>
  <g class="st0">
    <g class="st0">
      <path d="M15.48,29.78c-4.3,0-7.96-1.44-10.97-4.31C1.51,22.59,0,19.07,0,14.89S1.5,7.19,4.52,4.31C7.53,1.44,11.18,0,15.48,0,17.78,0,19.94.48,21.96,1.43c2.01.95,3.71,2.28,5.08,3.97l-3.69,3.58c-.96-1.21-2.13-2.2-3.49-2.97s-2.82-1.15-4.37-1.15c-2.73,0-5.06.98-6.98,2.95s-2.88,4.33-2.88,7.08.96,5.12,2.88,7.08c1.92,1.96,4.25,2.95,6.98,2.95,1.55,0,3-.38,4.37-1.14,1.37-.76,2.53-1.75,3.49-2.98l3.69,3.58c-1.37,1.69-3.07,3.02-5.08,3.97s-4.17,1.43-6.47,1.43h0Z"/>
      <path d="M83.55,10.37c0,2-.53,3.79-1.59,5.36-1.06,1.57-2.48,2.73-4.24,3.48l5.04,9.92h-5.99l-4.52-9.03h-5.84v9.03h-5.4V.65h12.53c2.78,0,5.14.93,7.09,2.79,1.95,1.86,2.92,4.17,2.92,6.93h0ZM76.65,13.87c.86-.96,1.29-2.13,1.29-3.49s-.43-2.53-1.29-3.49-1.89-1.45-3.1-1.45h-7.14v9.88h7.14c1.21,0,2.25-.48,3.1-1.45h0Z"/>
      <path d="M123.13,24.35h15.52v4.78h-20.91V.65h20.91v4.78h-15.52v7.03h12.9v4.78h-12.9v7.1h0Z"/>
      <path d="M191.01,29.13l-1.67-5.17h-10.98l-1.63,5.17h-5.8L180.94.65h5.86l10.01,28.48h-5.8,0ZM183.73,7.18l-3.84,12h7.94l-3.8-12h-.29Z"/>
      <path d="M247.48,5.44h-8.44v23.69h-5.39V5.44h-8.42V.65h22.25v4.78h0Z"/>
      <path d="M280.69,29.13V.65h5.39v28.48h-5.39Z"/>
      <path d="M346.52,4.31c3.02,2.88,4.52,6.4,4.52,10.58s-1.51,7.7-4.52,10.58c-3.02,2.88-6.67,4.31-10.98,4.31s-7.96-1.43-10.97-4.29c-3.01-2.86-4.52-6.39-4.52-10.59s1.5-7.74,4.52-10.6c3.01-2.86,6.66-4.29,10.97-4.29s7.96,1.44,10.98,4.31h0ZM342.55,21.99c1.92-1.95,2.88-4.32,2.88-7.1s-.96-5.15-2.88-7.1c-1.92-1.95-4.25-2.93-7.01-2.93s-5.09.98-7,2.93c-1.91,1.95-2.87,4.32-2.87,7.1s.96,5.15,2.87,7.1c1.91,1.95,4.24,2.93,7,2.93s5.09-.98,7.01-2.93Z"/>
    </g>
  </g>
</svg>