<?xml version="1.0" encoding="UTF-8"?>
<svg id="Capa_1" xmlns="http://www.w3.org/2000/svg" version="1.1" viewBox="0 0 1080 409.07">
  <!-- Generator: Adobe Illustrator 30.2.1, SVG Export Plug-In . SVG Version: 2.1.1 Build 1)  -->
  <defs>
    <style>
      .st0 {
        fill: #fc0;
      }

      .st1 {
        fill: #cf142b;
      }

      .st2 {
        font-family: Poppins-Light, Poppins;
        font-size: 151.18px;
        font-weight: 300;
      }

      .st3 {
        font-family: Poppins-Regular, Poppins;
        font-size: 46.22px;
        letter-spacing: 1.85em;
      }
    </style>
  </defs>
  <text class="st2" transform="translate(0 275.85)"><tspan x="0" y="0">Hagamos Arte</tspan></text>
  <text class="st3" transform="translate(186.29 382.63)"><tspan x="0" y="0">TÁCHIRA</tspan></text>
  <path class="st0" d="M446.69,75.92c-.06-.86-.24-1.68-.53-2.47,6.42-4.24,15.14-8.71,18.54-9.03,0-23.21-.02-47.19-.02-52.34l-10.28,13c-10.71,13.51-22.09,26.2-34.22,38.39-2.88,2.9-5.7,5.38-8.85,8,.98,2.32.77,4.59-.11,6.96-6.13,14.2-39.76,33.55-32.53,4.45,2.39,4.72,3.68,6.37,6.56,2.77,2.98-3.76,5.01-10.44,10.82-15.26,2.64-2.19,6.03-2.91,9.4-3.25,1.62-2.9,3.12-5.57,5.01-8.39,9.41-14.23,19.42-27.88,30.33-41.03L455.21.45c-12.77-.29-102.93-.45-102.93-.45-6.29,0-11.38,5.11-11.38,11.38v112.4h112.4c6.29,0,11.4-5.09,11.4-11.38v-45.35c-3.91,1.3-11.48,5.38-17.24,9.06-.26-.08-.51-.14-.77-.19ZM396.64,9.59l9.84,6.05,9.83-6.05-2.71,11.24,8.79,7.49-11.51.88-4.4,10.68-4.42-10.68-11.51-.88,8.79-7.49-2.71-11.24ZM370.08,78.08l-.98,2.37-.98-2.37-2.58-.21,1.97-1.66-.61-2.5,2.19,1.34,2.19-1.34-.61,2.5,1.97,1.66-2.58.21ZM371.35,59.64l-1.25,3.04-1.26-3.04-3.28-.26,2.51-2.13-.77-3.2,2.8,1.73,2.8-1.73-.77,3.2,2.5,2.13-3.28.26ZM370.75,42.95l5.2-4.45-1.6-6.64,5.83,3.59,5.83-3.59-1.6,6.64,5.2,4.45-6.82.53-2.61,6.31-2.61-6.31-6.82-.53ZM444.02,55.1s3.2,3.67,3.57,8.45c.3,3.95-1.41,7.44-2.02,8.55-.13.22-.21.35-.21.35,0,0-1.07-1.22-2.05-3.19-.7-1.42-1.38-3.25-1.54-5.27-.37-4.8,2.21-8.9,2.24-8.9ZM436.83,70.03c3.23,0,5.94,2.29,6.55,5.35.03.13.06.27.06.42-.27.03-.54.08-.82.14-1.68.35-3.2,1.14-4.45,2.26-1.74-1.55-4.03-2.48-6.53-2.48-.5,0-.99.03-1.46.13.43-3.28,3.25-5.81,6.64-5.81ZM423.34,103.79c-3.68,0-6.69-3.01-6.69-6.71s2.82-6.5,6.34-6.68c.11-.02.24-.02.35-.02.59,0,1.15.08,1.7.24h.02c.86.21,1.63.59,2.32,1.14-.11.24-.22.5-.3.77-.19.51-.34,1.04-.42,1.6-.11.56-.16,1.12-.16,1.71,0,2.13.67,4.1,1.81,5.71-1.22,1.38-2.99,2.22-4.96,2.22ZM425.18,87.37c-.16-.56-.24-1.14-.24-1.74,0-2.18,1.04-4.13,2.67-5.33.42-.34.88-.61,1.38-.83.48-.21,1.01-.37,1.55-.45.35-.06.72-.1,1.1-.1,1.74,0,3.31.66,4.5,1.74-.46.78-.83,1.63-1.04,2.53-.14.51-.24,1.04-.27,1.58-.03.27-.05.56-.05.85,0,.16,0,.32.02.46-.24.02-.48.06-.7.14-1.92.43-3.63,1.46-4.93,2.87-1.17-.86-2.51-1.46-3.99-1.73ZM436.38,102.54c-1.52,0-2.91-.51-4.03-1.38-.46-.34-.88-.74-1.23-1.2-.5-.62-.88-1.34-1.12-2.11v-.02c-.19-.62-.3-1.3-.3-1.98,0-.18,0-.35.03-.53,0-.06,0-.14.02-.22v-.02c.05-.46.14-.9.3-1.33.1-.34.22-.66.38-.96.1-.19.21-.37.32-.54.19-.32.42-.61.66-.88,1.04-1.15,2.47-1.94,4.07-2.16.29-.05.61-.06.91-.06.29,0,.56.02.83.05.03,0,.05.02.06.02.56.06,1.1.22,1.62.43.24.08.46.19.69.32,0,0,.02,0,.03.02.22.13.46.27.67.43.42.3.8.64,1.14,1.04.56.64,1.01,1.39,1.28,2.21.21.54.32,1.12.37,1.71.02.16.02.32.02.48,0,3.68-3.01,6.69-6.71,6.69ZM451.38,85.62c0,3.38-2.53,6.18-5.78,6.63-.8-2.1-2.31-3.83-4.23-4.93-.48-.3-.98-.54-1.5-.74-.24-.1-.5-.18-.75-.24-.27-.1-.54-.16-.82-.21-.1-.03-.19-.05-.3-.05-.02-.16-.02-.3-.02-.46,0-.22.02-.46.03-.69.03-.27.08-.53.14-.78.06-.32.16-.62.27-.93.16-.45.38-.86.64-1.25.08-.13.16-.26.27-.37.24-.35.53-.66.85-.93.8-.75,1.79-1.3,2.88-1.55h.02c.51-.14,1.04-.21,1.6-.21h.13c.54.02,1.07.1,1.58.24,2.87.75,4.98,3.36,4.98,6.47Z"/>
  <path d="M583.89,75.92c-.06-.86-.24-1.68-.53-2.47,6.42-4.24,15.14-8.71,18.54-9.03,0-23.21-.02-47.19-.02-52.34l-10.28,13c-10.71,13.51-22.09,26.2-34.22,38.39-2.88,2.9-5.7,5.38-8.85,8,.98,2.32.77,4.59-.11,6.96-6.13,14.2-39.76,33.55-32.53,4.45,2.39,4.72,3.68,6.37,6.56,2.77,2.98-3.76,5.01-10.44,10.82-15.26,2.64-2.19,6.03-2.91,9.4-3.25,1.62-2.9,3.12-5.57,5.01-8.39,9.41-14.23,19.42-27.88,30.33-41.03l14.39-17.29c-12.77-.29-102.93-.45-102.93-.45-6.29,0-11.38,5.11-11.38,11.38v112.4h112.4c6.29,0,11.4-5.09,11.4-11.38v-45.35c-3.91,1.3-11.48,5.38-17.24,9.06-.26-.08-.51-.14-.77-.19ZM533.84,9.59l9.84,6.05,9.83-6.05-2.71,11.24,8.79,7.49-11.51.88-4.4,10.68-4.42-10.68-11.51-.88,8.79-7.49-2.71-11.24ZM507.28,78.08l-.98,2.37-.98-2.37-2.58-.21,1.97-1.66-.61-2.5,2.19,1.34,2.19-1.34-.61,2.5,1.97,1.66-2.58.21ZM508.55,59.64l-1.25,3.04-1.26-3.04-3.28-.26,2.51-2.13-.77-3.2,2.8,1.73,2.8-1.73-.77,3.2,2.5,2.13-3.28.26ZM507.95,42.95l5.2-4.45-1.6-6.64,5.83,3.59,5.83-3.59-1.6,6.64,5.2,4.45-6.82.53-2.61,6.31-2.61-6.31-6.82-.53ZM581.22,55.1s3.2,3.67,3.57,8.45c.3,3.95-1.41,7.44-2.02,8.55-.13.22-.21.35-.21.35,0,0-1.07-1.22-2.05-3.19-.7-1.42-1.38-3.25-1.54-5.27-.37-4.8,2.21-8.9,2.24-8.9ZM574.03,70.03c3.23,0,5.94,2.29,6.55,5.35.03.13.06.27.06.42-.27.03-.54.08-.82.14-1.68.35-3.2,1.14-4.45,2.26-1.74-1.55-4.03-2.48-6.53-2.48-.5,0-.99.03-1.46.13.43-3.28,3.25-5.81,6.64-5.81ZM560.54,103.79c-3.68,0-6.69-3.01-6.69-6.71s2.82-6.5,6.34-6.68c.11-.02.24-.02.35-.02.59,0,1.15.08,1.7.24h.02c.86.21,1.63.59,2.32,1.14-.11.24-.22.5-.3.77-.19.51-.34,1.04-.42,1.6-.11.56-.16,1.12-.16,1.71,0,2.13.67,4.1,1.81,5.71-1.22,1.38-2.99,2.22-4.96,2.22ZM562.38,87.37c-.16-.56-.24-1.14-.24-1.74,0-2.18,1.04-4.13,2.67-5.33.42-.34.88-.61,1.38-.83.48-.21,1.01-.37,1.55-.45.35-.06.72-.1,1.1-.1,1.74,0,3.31.66,4.5,1.74-.46.78-.83,1.63-1.04,2.53-.14.51-.24,1.04-.27,1.58-.03.27-.05.56-.05.85,0,.16,0,.32.02.46-.24.02-.48.06-.7.14-1.92.43-3.63,1.46-4.93,2.87-1.17-.86-2.51-1.46-3.99-1.73ZM573.58,102.54c-1.52,0-2.91-.51-4.03-1.38-.46-.34-.88-.74-1.23-1.2-.5-.62-.88-1.34-1.12-2.11v-.02c-.19-.62-.3-1.3-.3-1.98,0-.18,0-.35.03-.53,0-.06,0-.14.02-.22v-.02c.05-.46.14-.9.3-1.33.1-.34.22-.66.38-.96.1-.19.21-.37.32-.54.19-.32.42-.61.66-.88,1.04-1.15,2.47-1.94,4.07-2.16.29-.05.61-.06.91-.06.29,0,.56.02.83.05.03,0,.05.02.06.02.56.06,1.1.22,1.62.43.24.08.46.19.69.32,0,0,.02,0,.03.02.22.13.46.27.67.43.42.3.8.64,1.14,1.04.56.64,1.01,1.39,1.28,2.21.21.54.32,1.12.37,1.71.02.16.02.32.02.48,0,3.68-3.01,6.69-6.71,6.69ZM588.58,85.62c0,3.38-2.53,6.18-5.78,6.63-.8-2.1-2.31-3.83-4.23-4.93-.48-.3-.98-.54-1.5-.74-.24-.1-.5-.18-.75-.24-.27-.1-.54-.16-.82-.21-.1-.03-.19-.05-.3-.05-.02-.16-.02-.3-.02-.46,0-.22.02-.46.03-.69.03-.27.08-.53.14-.78.06-.32.16-.62.27-.93.16-.45.38-.86.64-1.25.08-.13.16-.26.27-.37.24-.35.53-.66.85-.93.8-.75,1.79-1.3,2.88-1.55h.02c.51-.14,1.04-.21,1.6-.21h.13c.54.02,1.07.1,1.58.24,2.87.75,4.98,3.36,4.98,6.47Z"/>
  <path class="st1" d="M721.09,75.92c-.06-.86-.24-1.68-.53-2.47,6.42-4.24,15.14-8.71,18.54-9.03,0-23.21-.02-47.19-.02-52.34l-10.28,13c-10.71,13.51-22.09,26.2-34.22,38.39-2.88,2.9-5.7,5.38-8.85,8,.98,2.32.77,4.59-.11,6.96-6.13,14.2-39.76,33.55-32.53,4.45,2.39,4.72,3.68,6.37,6.56,2.77,2.98-3.76,5.01-10.44,10.82-15.26,2.64-2.19,6.03-2.91,9.4-3.25,1.62-2.9,3.12-5.57,5.01-8.39,9.41-14.23,19.42-27.88,30.33-41.03l14.39-17.29c-12.77-.29-102.93-.45-102.93-.45-6.29,0-11.38,5.11-11.38,11.38v112.4h112.4c6.29,0,11.4-5.09,11.4-11.38v-45.35c-3.91,1.3-11.48,5.38-17.24,9.06-.26-.08-.51-.14-.77-.19ZM671.04,9.59l9.84,6.05,9.83-6.05-2.71,11.24,8.79,7.49-11.51.88-4.4,10.68-4.42-10.68-11.51-.88,8.79-7.49-2.71-11.24ZM644.48,78.08l-.98,2.37-.98-2.37-2.58-.21,1.97-1.66-.61-2.5,2.19,1.34,2.19-1.34-.61,2.5,1.97,1.66-2.58.21ZM645.75,59.64l-1.25,3.04-1.26-3.04-3.28-.26,2.51-2.13-.77-3.2,2.8,1.73,2.8-1.73-.77,3.2,2.5,2.13-3.28.26ZM645.15,42.95l5.2-4.45-1.6-6.64,5.83,3.59,5.83-3.59-1.6,6.64,5.2,4.45-6.82.53-2.61,6.31-2.61-6.31-6.82-.53ZM718.42,55.1s3.2,3.67,3.57,8.45c.3,3.95-1.41,7.44-2.02,8.55-.13.22-.21.35-.21.35,0,0-1.07-1.22-2.05-3.19-.7-1.42-1.38-3.25-1.54-5.27-.37-4.8,2.21-8.9,2.24-8.9ZM711.23,70.03c3.23,0,5.94,2.29,6.55,5.35.03.13.06.27.06.42-.27.03-.54.08-.82.14-1.68.35-3.2,1.14-4.45,2.26-1.74-1.55-4.03-2.48-6.53-2.48-.5,0-.99.03-1.46.13.43-3.28,3.25-5.81,6.64-5.81ZM697.74,103.79c-3.68,0-6.69-3.01-6.69-6.71s2.82-6.5,6.34-6.68c.11-.02.24-.02.35-.02.59,0,1.15.08,1.7.24h.02c.86.21,1.63.59,2.32,1.14-.11.24-.22.5-.3.77-.19.51-.34,1.04-.42,1.6-.11.56-.16,1.12-.16,1.71,0,2.13.67,4.1,1.81,5.71-1.22,1.38-2.99,2.22-4.96,2.22ZM699.58,87.37c-.16-.56-.24-1.14-.24-1.74,0-2.18,1.04-4.13,2.67-5.33.42-.34.88-.61,1.38-.83.48-.21,1.01-.37,1.55-.45.35-.06.72-.1,1.1-.1,1.74,0,3.31.66,4.5,1.74-.46.78-.83,1.63-1.04,2.53-.14.51-.24,1.04-.27,1.58-.03.27-.05.56-.05.85,0,.16,0,.32.02.46-.24.02-.48.06-.7.14-1.92.43-3.63,1.46-4.93,2.87-1.17-.86-2.51-1.46-3.99-1.73ZM710.78,102.54c-1.52,0-2.91-.51-4.03-1.38-.46-.34-.88-.74-1.23-1.2-.5-.62-.88-1.34-1.12-2.11v-.02c-.19-.62-.3-1.3-.3-1.98,0-.18,0-.35.03-.53,0-.06,0-.14.02-.22v-.02c.05-.46.14-.9.3-1.33.1-.34.22-.66.38-.96.1-.19.21-.37.32-.54.19-.32.42-.61.66-.88,1.04-1.15,2.47-1.94,4.07-2.16.29-.05.61-.06.91-.06.29,0,.56.02.83.05.03,0,.05.02.06.02.56.06,1.1.22,1.62.43.24.08.46.19.69.32,0,0,.02,0,.03.02.22.13.46.27.67.43.42.3.8.64,1.14,1.04.56.64,1.01,1.39,1.28,2.21.21.54.32,1.12.37,1.71.02.16.02.32.02.48,0,3.68-3.01,6.69-6.71,6.69ZM725.78,85.62c0,3.38-2.53,6.18-5.78,6.63-.8-2.1-2.31-3.83-4.23-4.93-.48-.3-.98-.54-1.5-.74-.24-.1-.5-.18-.75-.24-.27-.1-.54-.16-.82-.21-.1-.03-.19-.05-.3-.05-.02-.16-.02-.3-.02-.46,0-.22.02-.46.03-.69.03-.27.08-.53.14-.78.06-.32.16-.62.27-.93.16-.45.38-.86.64-1.25.08-.13.16-.26.27-.37.24-.35.53-.66.85-.93.8-.75,1.79-1.3,2.88-1.55h.02c.51-.14,1.04-.21,1.6-.21h.13c.54.02,1.07.1,1.58.24,2.87.75,4.98,3.36,4.98,6.47Z"/>
</svg>