<?xml version="1.0" encoding="UTF-8"?>
<svg id="Capa_1" xmlns="http://www.w3.org/2000/svg" version="1.1" viewBox="0 0 1080 1080">
  <!-- Generator: Adobe Illustrator 30.2.1, SVG Export Plug-In . SVG Version: 2.1.1 Build 1)  -->
  <defs>
    <style>
      .st0 {
        font-family: Kaleko105-Book, 'Kaleko 105';
      }

      .st0, .st1, .st2, .st3, .st4 {
        isolation: isolate;
      }

      .st0, .st4 {
        font-size: 115.95px;
      }

      .st5 {
        fill: #fff;
      }

      .st2, .st3 {
        font-family: MADETommySoft-Thin, 'MADE Tommy Soft';
        font-size: 49.65px;
        font-weight: 200;
      }

      .st3 {
        letter-spacing: .8em;
      }

      .st4 {
        font-family: Kaleko105-Bold, 'Kaleko 105';
        font-weight: 700;
        letter-spacing: .8em;
      }
    </style>
  </defs>
  <g>
    <g class="st1">
      <g class="st1">
        <path d="M-1897.35-547.66v2.13c0,.87-.69,1.56-1.56,1.56h-8.65v33.55c0,.87-.69,1.56-1.56,1.56h-2.65c-.86,0-1.56-.69-1.56-1.56v-33.55h-8.65c-.86,0-1.56-.69-1.56-1.56v-2.13c0-.86.69-1.56,1.56-1.56h23.06c.86,0,1.56.69,1.56,1.56Z"/>
        <path d="M-1821.42-510.25l-2.94-8.36h-17.29l-2.94,8.36c-.29.81-1.04,1.38-1.9,1.38h-3.34c-.69,0-1.21-.69-.92-1.38l14.01-37.64c.29-.81,1.04-1.33,1.9-1.33h3.69c.86,0,1.61.52,1.9,1.33l14.07,37.64c.23.69-.29,1.38-.98,1.38h-3.29c-.92,0-1.67-.58-1.96-1.38ZM-1826.21-523.85l-6.8-19.2-6.74,19.2h13.55ZM-1826.73-562.31c.86,0,1.33.92.86,1.61l-4.04,5.76c-.29.46-.75.69-1.27.69h-1.84c-.52,0-.92-.58-.69-1.09l2.71-5.82c.35-.69,1.1-1.15,1.84-1.15h2.42Z"/>
        <path d="M-1735.63-517.8c.52-.58,1.33-.69,1.96-.23l2.19,1.44c.81.52.98,1.67.29,2.36-3.63,3.75-8.82,6.05-14.82,6.05-11.93,0-20.52-9.05-20.52-20.87s8.59-20.93,20.52-20.93c6,0,11.18,2.31,14.82,6.11.69.69.52,1.84-.29,2.36l-2.19,1.44c-.63.4-1.44.29-1.96-.23-2.48-2.59-6-4.27-10.38-4.27-9.4,0-14.64,7.67-14.64,15.51s5.25,15.51,14.64,15.51c4.38,0,7.9-1.67,10.38-4.27Z"/>
        <path d="M-1651.92-549.22h2.65c.86,0,1.56.69,1.56,1.56v37.24c0,.87-.69,1.56-1.56,1.56h-2.65c-.86,0-1.56-.69-1.56-1.56v-16.2h-19.14v16.2c0,.87-.69,1.56-1.56,1.56h-2.65c-.86,0-1.56-.69-1.56-1.56v-37.24c0-.86.69-1.56,1.56-1.56h2.65c.86,0,1.56.69,1.56,1.56v15.8h19.14v-15.8c0-.86.69-1.56,1.56-1.56Z"/>
        <path d="M-1591.96-549.22h2.71c.86,0,1.56.69,1.56,1.56v37.24c0,.87-.69,1.56-1.56,1.56h-2.71c-.86,0-1.56-.69-1.56-1.56v-37.24c0-.86.69-1.56,1.56-1.56Z"/>
        <path d="M-1506.46-508.87h-3.17c-.98,0-1.84-.52-2.25-1.38l-7.67-14.24c-.52.06-1.04.06-1.56.06h-6.69v14.01c0,.87-.69,1.56-1.5,1.56h-2.71c-.86,0-1.56-.69-1.56-1.56v-37.24c0-.86.69-1.56,1.56-1.56h10.9c9.22,0,14.47,5.42,14.47,12.39,0,4.84-2.54,8.99-7.26,11.01l8.53,15.05c.46.86-.12,1.9-1.09,1.9ZM-1521.1-529.68c5.53,0,8.59-2.83,8.59-7.15s-3.06-7.15-8.59-7.15h-6.69v14.3h6.69Z"/>
        <path d="M-1431.74-514.11c.86,0,1.56.69,1.56,1.5v2.19c0,.87-.69,1.56-1.56,1.56h-19.72c-.81,0-1.5-.69-1.5-1.56v-37.24c0-.86.69-1.56,1.5-1.56h19.2c.87,0,1.56.69,1.56,1.56v2.13c0,.87-.69,1.56-1.56,1.56h-14.93v11.59h13.61c.86,0,1.56.69,1.56,1.56v2.13c0,.87-.69,1.56-1.56,1.56h-13.61v13.03h15.45Z"/>
        <path d="M-1349.59-549.22h2.71c.81,0,1.5.69,1.5,1.56v37.24c0,.87-.69,1.56-1.5,1.56h-2.19c-.81,0-1.61-.4-2.08-1.1l-20.18-28.65v28.19c0,.87-.69,1.56-1.5,1.56h-2.71c-.86,0-1.56-.69-1.56-1.56v-37.24c0-.86.69-1.56,1.56-1.56h2.13c.87,0,1.61.4,2.13,1.1l20.12,28.59v-28.13c0-.86.69-1.56,1.56-1.56Z"/>
        <path d="M-1265.3-520.11c0,5.65-3.86,11.93-14.24,11.93-5.59,0-11.41-2.25-13.89-7.49-.4-.81.06-1.79.98-2.08l2.71-.86c.69-.23,1.5.06,1.84.75,1.1,2.25,3.92,4.27,8.47,4.27s8.24-1.9,8.24-6.05c0-5.48-4.9-5.71-11.3-7.26-8.13-1.96-9.97-6.23-9.97-11.47,0-6.8,5.82-11.59,13.32-11.59,5.19,0,9.57,2.54,11.59,7.03.4.86-.12,1.9-1.04,2.13l-2.71.63c-.69.17-1.38-.17-1.73-.81-1.15-2.19-3.52-3.98-7.9-3.57-3.17.35-5.71,2.94-5.76,6.17,0,5.13,4.9,5.94,10.03,7.09,7.84,1.84,11.36,4.67,11.36,11.18Z"/>
        <path d="M-1211.85-549.22h2.71c.87,0,1.56.69,1.56,1.56v37.24c0,.87-.69,1.56-1.56,1.56h-2.71c-.86,0-1.56-.69-1.56-1.56v-37.24c0-.86.69-1.56,1.56-1.56Z"/>
        <path d="M-1127.56-520.11c0,5.65-3.86,11.93-14.24,11.93-5.59,0-11.41-2.25-13.89-7.49-.4-.81.06-1.79.98-2.08l2.71-.86c.69-.23,1.5.06,1.84.75,1.1,2.25,3.92,4.27,8.47,4.27s8.24-1.9,8.24-6.05c0-5.48-4.9-5.71-11.3-7.26-8.13-1.96-9.97-6.23-9.97-11.47,0-6.8,5.82-11.59,13.32-11.59,5.19,0,9.57,2.54,11.59,7.03.4.86-.12,1.9-1.04,2.13l-2.71.63c-.69.17-1.38-.17-1.73-.81-1.15-2.19-3.52-3.98-7.9-3.57-3.17.35-5.71,2.94-5.76,6.17,0,5.13,4.9,5.94,10.03,7.09,7.84,1.84,11.36,4.67,11.36,11.18Z"/>
      </g>
    </g>
    <g class="st1">
      <g class="st1">
        <path d="M-2014.48-611.65c-13.13,0-24.3-4.39-33.49-13.16-9.19-8.78-13.79-19.54-13.79-32.3s4.59-23.52,13.79-32.3c9.19-8.78,20.35-13.16,33.49-13.16,7.02,0,13.61,1.45,19.76,4.36,6.15,2.91,11.32,6.95,15.51,12.12l-11.27,10.93c-2.94-3.7-6.5-6.72-10.67-9.06-4.17-2.34-8.62-3.51-13.33-3.51-8.34,0-15.45,3-21.32,9-5.87,6-8.8,13.21-8.8,21.63s2.93,15.62,8.8,21.63c5.87,6,12.97,9,21.32,9,4.72,0,9.16-1.16,13.33-3.48,4.17-2.32,7.73-5.35,10.67-9.09l11.27,10.93c-4.19,5.17-9.36,9.21-15.51,12.12-6.15,2.91-12.74,4.36-19.76,4.36Z"/>
        <path d="M-1806.63-670.93c0,6.11-1.62,11.57-4.87,16.36-3.25,4.79-7.57,8.34-12.96,10.64l15.4,30.29h-18.29l-13.81-27.57h-17.83v27.57h-16.48v-86.96h38.27c8.49,0,15.71,2.84,21.66,8.52,5.94,5.68,8.92,12.73,8.92,21.15ZM-1827.72-660.23c2.62-2.94,3.93-6.5,3.93-10.67s-1.31-7.73-3.93-10.67c-2.62-2.94-5.78-4.42-9.48-4.42h-21.8v30.18h21.8c3.7,0,6.86-1.47,9.48-4.42Z"/>
        <path d="M-1685.79-628.24h47.39v14.61h-63.86v-86.96h63.86v14.61h-47.39v21.46h39.4v14.61h-39.4v21.68Z"/>
        <path d="M-1478.5-613.63l-5.1-15.8h-33.52l-4.98,15.8h-17.72l30.57-86.96h17.89l30.57,86.96h-17.72ZM-1500.75-680.66l-11.72,36.63h24.23l-11.61-36.63h-.9Z"/>
        <path d="M-1306.09-685.99h-25.76v72.35h-16.47v-72.35h-25.7v-14.61h67.94v14.61Z"/>
        <path d="M-1204.67-613.63v-86.96h16.47v86.96h-16.47Z"/>
        <path d="M-1003.66-689.41c9.21,8.78,13.81,19.54,13.81,32.3s-4.61,23.52-13.81,32.3c-9.21,8.78-20.38,13.16-33.52,13.16s-24.3-4.37-33.49-13.11c-9.19-8.74-13.79-19.52-13.79-32.35s4.59-23.62,13.79-32.36c9.19-8.74,20.35-13.11,33.49-13.11s24.31,4.39,33.52,13.16ZM-1015.78-635.43c5.85-5.96,8.78-13.19,8.78-21.68s-2.92-15.72-8.78-21.68c-5.85-5.96-12.98-8.95-21.4-8.95s-15.54,2.98-21.37,8.95c-5.83,5.96-8.75,13.19-8.75,21.68s2.92,15.72,8.75,21.68c5.83,5.96,12.96,8.95,21.37,8.95s15.55-2.98,21.4-8.95Z"/>
      </g>
    </g>
    <text/>
  </g>
  <g class="st1">
    <text class="st3" transform="translate(-1905.93 -755.41)"><tspan x="0" y="0">TÁCHIRENSIS</tspan></text>
  </g>
  <g class="st1">
    <text class="st2" transform="translate(-1614.5 -414.07)"><tspan x="0" y="0">Tachirenses</tspan></text>
  </g>
  <g class="st1">
    <text class="st4" transform="translate(-2106.35 -857.47)"><tspan x="0" y="0">CREATIO</tspan></text>
  </g>
  <g class="st1">
    <text class="st0" transform="translate(-1714.24 -281.39)"><tspan x="0" y="0">creacio</tspan></text>
  </g>
  <text/>
  <rect x="-1320" y="467.11" width="1080" height="145.78" rx="27.62" ry="27.62"/>
  <rect x="-1320" y="731.63" width="1080" height="145.78" rx="27.62" ry="27.62"/>
  <rect x="-1320" y="202.59" width="1080" height="145.78" rx="27.62" ry="27.62"/>
  <rect x="-133.33" y="328" width="690.67" height="424" rx="27.62" ry="27.62" transform="translate(752 328) rotate(90)"/>
  <rect x="333.07" y="482.3" width="551.25" height="97.29" rx="27.62" ry="27.62" transform="translate(1139.63 -77.75) rotate(90)"/>
  <rect x="370.66" y="255.32" width="263.98" height="97.29" rx="27.62" ry="27.62"/>
  <rect class="st5" x="313.91" y="503.32" width="56.74" height="55.24" rx="27.62" ry="27.62"/>
  <rect x="730.67" y="465.23" width="230.88" height="149.54" rx="27.62" ry="27.62"/>
  <path d="M886.78,467.02v145.97c0,.73.02,1.46.06,2.18,1.46,28.78,33.61,45.34,58.58,30.95l109.82-63.27c33.02-19.02,33.02-66.67,0-85.7l-109.82-63.27c-24.97-14.38-57.12,2.18-58.58,30.95-.04.72-.06,1.45-.06,2.18Z"/>
  <rect x="393.35" y="727.39" width="263.98" height="97.29" rx="27.62" ry="27.62"/>
</svg>