<?xml version="1.0" encoding="UTF-8"?>
<svg id="Capa_1" xmlns="http://www.w3.org/2000/svg" version="1.1" viewBox="0 0 1080 1080">
  <!-- Generator: Adobe Illustrator 30.2.1, SVG Export Plug-In . SVG Version: 2.1.1 Build 1)  -->
  <path d="M1000.95,897.65h-126.46c-15.73,0-28.49,12.75-28.49,28.49v124.74c0,15.73-12.75,28.49-28.49,28.49h-37.32c-15.73,0-28.49-12.75-28.49-28.49v-124.74c0-15.73-12.75-28.49-28.49-28.49h-126.46c-15.73,0-28.49-12.75-28.49-28.49v-35.26c0-15.73,12.75-28.49,28.49-28.49h126.46c15.73,0,28.49-12.75,28.49-28.49v-124.74c0-15.73,12.75-28.49,28.49-28.49h37.32c15.73,0,28.49,12.75,28.49,28.49v124.74c0,15.73,12.75,28.49,28.49,28.49h126.46c15.73,0,28.49,12.75,28.49,28.49v35.26c0,15.73-12.75,28.49-28.49,28.49Z"/>
  <path d="M193.11,738.89c22.96,41.51-40.19,25.43-73.45,92.33-30.27,60.88-49.78,123.69-61.46,191.22,70.04-14.32,132.66-34,190.38-62.88l-54.89-41.86c-29.19-22.26-51.43,12.22-69.02-18.57-4.32-7.55,2.64-26.25,10.87-30.57,36.13-18.99,75.25-8.62,101.32,21.17,14.11,16.12,52.38,29.3,64.16,4.36,17.19-36.41-7.13-81.23-38.77-102.94-13.13-9.01-20.95-28.34-12.72-43.36,74.39-135.85,166.47-253.2,282.65-356.52L950.85,18.92c31.64-28.14,77.12-22.99,104.49,2.98,26.59,25.23,35.02,71.98,8.5,104.11l-318.38,385.69c-95.62,115.84-210.15,204.55-339.12,281.03-7.06,4.18-29.79-.98-34.44-7.43-5.41-7.51-2.01-27.47,6.71-33.06l86.28-55.37-76.02-75.58c-34.2,49.34-60.19,89.14-88.16,135.93,42.35,37.27,60.39,82.74,54.15,137.16-5.04,43.96-36.93,85.36-83.46,108.97-76.81,38.97-157.45,59.7-244.21,75.85-10.91,2.03-29.06-15.34-27.01-26.23,15.74-83.54,35.03-160.71,71.08-235.5,32.13-66.64,103.6-111.6,121.86-78.59h0ZM507.78,667.55c81.5-65.49,149.48-125.18,212.02-201.1l306.24-371.78c7.33-8.9,1.62-32.55-5.89-38.63-7.95-6.44-28.68-7.4-38.24,1.07l-391.22,346.56c-63.39,56.15-116.48,115.57-170.16,178.38l87.27,85.5h-.02Z"/>
</svg>